<mxfile host="app.diagrams.net" modified="2023-06-15T20:40:17.380Z" agent="Mozilla/5.0 (Windows NT 10.0; Win64; x64) AppleWebKit/537.36 (KHTML, like Gecko) Chrome/112.0.0.0 YaBrowser/23.5.1.714 Yowser/2.5 Safari/537.36" version="21.4.0" etag="2Pj65r0pydiQHCRY_0GB" type="github">
  <diagram name="Страница 1" id="u1EENSecaINZD0dG0JY7">
    <mxGraphModel>
      <root>
        <mxCell id="0" />
        <mxCell id="1" parent="0" />
      </root>
    </mxGraphModel>
  </diagram>
</mxfile>
